<svg width="248" height="248" viewBox="0 0 248 248" fill="none" xmlns="http://www.w3.org/2000/svg">
<path d="M62.3138 32.7972C62.8746 31.5558 63.4353 30.3144 64.0131 29.0354C72.3937 13.1335 80.9883 11.1935 91.2021 13.4509C96.5601 16.2168 101.389 19.5687 105.646 28.498C105.124 30.2105 104.601 31.9229 104.063 33.6873C103.369 35.9876 102.676 38.2883 101.982 40.5894C100.962 43.9561 100.962 43.9561 99.9211 47.3909C93.9554 68.8179 92.8191 91.0333 93.7511 116.631C95.5288 142.448 100.445 162.245 108.726 177.894C113.432 186.134 117.749 192.287 123.489 194.016C123.489 201.11 123.489 208.203 123.489 215.512C111.993 215.512 100.497 215.512 88.6532 215.512C88.6055 203.986 88.6055 203.986 88.5569 192.228C88.5177 184.8 88.4741 177.373 88.4302 169.946C88.4019 164.777 88.3781 159.608 88.3588 154.439C88.3304 147.017 88.2859 139.596 88.2383 132.174C88.2329 129.856 88.2274 127.538 88.2218 125.15C88.205 122.999 88.1882 120.848 88.1709 118.631C88.1614 116.736 88.152 114.841 88.1423 112.889C87.9137 107.979 87.9137 107.979 86.8778 104.012C84.7037 100.182 84.7037 100.182 79.3069 103.734C79.0265 140.62 78.7462 177.507 78.4573 215.512C67.5222 215.512 56.5871 215.512 45.3206 215.512C45.2889 208.008 45.2571 200.505 45.2244 192.773C45.1851 185.51 45.1416 178.246 45.0976 170.983C45.0694 165.933 45.0456 160.883 45.0263 155.833C44.9978 148.575 44.9534 141.32 44.9058 134.063C44.9003 131.803 44.8949 129.544 44.8893 127.216C44.8641 124.053 44.8641 124.053 44.8383 120.827C44.8242 118.049 44.8242 118.049 44.8098 115.215C44.3968 109.081 43.6024 106.077 41.922 101.584C39.7979 100.151 39.7979 100.151 37.6737 101.584C35.3228 107.869 34.8009 112.281 34.7574 120.827C34.7406 122.936 34.7237 125.044 34.7064 127.216C34.6983 130.605 34.6983 130.605 34.69 134.063C34.6747 136.389 34.6595 138.714 34.6437 141.111C34.5977 148.535 34.569 155.959 34.5406 163.385C34.5124 168.42 34.4831 173.455 34.4527 178.49C34.3783 190.831 34.3273 203.17 34.2751 215.512C23.0596 215.512 11.8441 215.512 0.288791 215.512C0.230031 198.84 0.179349 182.171 0.148772 165.498C0.136015 159.836 0.118667 154.174 0.0964982 148.512C0.0653099 140.337 0.0510567 132.162 0.0398682 123.987C0.0267122 121.487 0.0135563 118.987 1.6311e-06 116.411C-0.00220464 88.8153 2.2333 61.8903 9.66821 40.7742C24.4902 5.39555 45.9399 3.83526 62.3138 32.7972Z" fill="#5271FE"/>
<path d="M205.853 0.015966C206.752 0.0377873 206.752 0.0377873 207.67 0.0600493C217.83 0.571353 226.231 9.87919 233.945 26.3484C234.452 27.3764 234.959 28.4044 235.481 29.4636C242.73 45.6798 247.099 72.0583 247.737 96.1769C247.839 103.632 247.893 111.062 247.901 118.52C247.911 123.153 247.952 127.781 247.995 132.413C248.146 165.141 244.539 194.682 235.87 219.778C229.244 235.968 219.667 248.052 210.42 248C209.451 248 208.482 248 207.483 247.999C206.441 247.988 205.399 247.977 204.326 247.966C202.721 247.961 202.721 247.961 201.083 247.957C198.245 247.947 195.407 247.927 192.568 247.903C189.669 247.881 186.77 247.871 183.871 247.861C178.188 247.839 172.505 247.797 166.822 247.756C166.822 220.091 166.822 192.425 166.822 163.922C182.243 163.922 197.664 163.922 213.553 163.922C213.483 152.749 213.413 141.577 213.34 130.066C213.32 124.797 213.32 124.797 213.3 119.421C213.261 115.263 213.261 115.263 213.221 111.022C213.203 108.185 213.185 105.348 213.167 102.426C212.923 95.0432 212.923 95.0432 211.161 89.8347C209.27 85.7864 209.27 85.7864 206.278 86.6712C202.872 88.7565 202.872 88.7565 200.808 95.1352C200.365 102.656 200.433 106.507 202.029 113.004C204.846 118.294 204.846 118.294 211.853 118.781C211.853 132.259 211.853 145.736 211.853 159.623C206.619 160.068 201.396 160.452 196.161 160.685C194.382 160.783 192.604 160.915 190.826 161.082C188.265 161.318 185.707 161.427 183.144 161.512C182.353 161.612 181.561 161.712 180.746 161.815C178.422 161.819 176.664 161.577 174.469 159.623C168.08 143.402 166.569 121.667 166.397 99.703C166.419 82.6624 167.719 69.2682 171.07 54.293C171.439 52.5806 171.808 50.8681 172.188 49.1038C177.688 26.0313 185.996 10.9592 195.969 2.45944C199.315 0.428296 202.435 -0.104107 205.853 0.015966Z" fill="#FF914E"/>
<path d="M144.926 22.1247C153.805 33.8268 159.73 49.7586 163.592 73.4377C164.355 80.8943 164.394 87.464 164.273 95.1351C157.271 96.5981 150.268 97.6099 143.244 97.9564C142.586 98.0201 141.928 98.0839 141.251 98.1495C139.38 98.1999 139.38 98.1999 136.234 97.2847C134.681 93.0023 134.681 93.0023 133.685 88.6863C130.985 87.6903 129.351 87.6269 126.941 90.9703C125.488 97.6746 126.204 102.993 126.888 110.182C129.319 113.257 131 113.163 133.685 112.332C133.995 110.578 134.305 108.824 134.624 107.017C136.234 101.584 136.234 101.584 137.849 100.499C139.974 100.028 142.067 99.8725 144.199 99.8373C145.337 99.7586 145.337 99.7586 146.497 99.6783C148.741 99.5387 150.983 99.4737 153.227 99.4342C153.847 99.4162 154.466 99.3982 155.105 99.3797C158.162 99.2966 161.216 99.3072 164.273 99.4342C165.003 121.616 161.811 140.896 156.271 158.036C150.492 174.099 144.163 184.727 135.421 186.534C126.426 187.586 119.139 186.137 111.594 172.52C111.025 171.564 110.457 170.608 109.871 169.623C103.125 156.814 98.4922 135.349 97.1497 114.481C96.1295 85.0351 98.8847 64.4098 106.091 41.5969C115.59 14.8697 132.105 7.07032 144.926 22.1247Z" fill="#FF67C4"/>
</svg>
